<svg version="1.2" xmlns="http://www.w3.org/2000/svg" viewBox="0 0 901 787" width="901" height="787">
	<title>userHeader-svg</title>
	<defs>
		<linearGradient id="g1" x1="461.6" y1="589.5" x2="461.6" y2="47" gradientUnits="userSpaceOnUse">
			<stop offset="0" stop-color="#808080" stop-opacity=".3"/>
			<stop offset=".5" stop-color="#808080" stop-opacity=".1"/>
			<stop offset="1" stop-color="#808080" stop-opacity=".1"/>
		</linearGradient>
	</defs>
	<style>
		.s0 { opacity: .2;fill: #6b705c } 
		.s1 { fill: #6b705c } 
		.s2 { fill: none;stroke: #535461;stroke-width: 2 } 
		.s3 { opacity: .2;fill: #f5f5f5 } 
		.s4 { fill: url(#g1) } 
		.s5 { fill: #cb997e } 
		.s6 { fill: #f7c4a7 } 
		.s7 { opacity: .1;fill: #000000 } 
		.s8 { fill: #000000 } 
		.s9 { fill: #e9c46a } 
		.s10 { fill: #535461 } 
		.s11 { fill: #ffffff } 
		.s12 { opacity: .1;fill: none;stroke: #000000 } 
		.s13 { fill: #ffe8d6 } 
		.s14 { fill: #a5a58d } 
		.s15 { fill: #d6d6e3 } 
	</style>
	<path id="Layer" class="s0" d="m763.6 283h52v27h-52z" />
	<path id="Layer" class="s0" d="m767.6 316h52v27h-52z" />
	<path id="Layer" class="s0" d="m724.6 87h52v27h-52z" />
	<path id="Layer" class="s0" d="m761.6 118h52v27h-52z" />
	<path id="Layer" class="s0" d="m661.6 89h52v27h-52z" />
	<path id="Layer" class="s0" d="m828.6 149h52v27h-52z" />
	<path id="Layer" class="s0" d="m765.6 151h52v27h-52z" />
	<path id="Layer" class="s0" d="m698.6 120h52v27h-52z" />
	<path id="Layer" class="s0" d="m825.6 357h52v27h-52z" />
	<path id="Layer" class="s0" d="m762.6 359h52v27h-52z" />
	<path id="Layer" class="s1" d="m130.8 276c0 0 73.2 73.3 31.9 182c-41.4 108.7 70.9 289.6 70.9 289.6c0 0-1.2-0.1-3.5-0.5c-150.5-26.6-225.3-198.8-141.5-326.6c31.1-47.6 56.6-103.4 42.2-144.5z" />
	<path id="Layer" class="s2" d="m233.6 747.6c-109.9-29.5-144.2-235.2-102.8-308.5c41.3-73.3 0-163.1 0-163.1" />
	<path id="Layer" class="s1" d="m0.2 572.4c0 0 83.6-13.3 91.3 61.6c7.6 75 160.8 85.4 160.8 85.4c0 0-1 0.7-2.9 1.9c-126.5 83-247.4 52.9-229.2-57.4c6.8-40.9 6.2-82.1-20-91.5z" />
	<path id="Layer" class="s3" d="m0.2 572.4c0 0 83.6-13.3 91.3 61.6c7.6 75 160.8 85.4 160.8 85.4c0 0-1 0.7-2.9 1.9c-126.5 83-247.4 52.9-229.2-57.4c6.8-40.9 6.2-82.1-20-91.5z" />
	<path id="Layer" class="s2" d="m252.3 719.4c-96.1 56.1-197.8-14.7-192.5-73.7c5.3-59-59.6-73.3-59.6-73.3" />
	<path id="Layer" class="s0" d="m0.6 284h52v27h-52z" />
	<path id="Layer" class="s0" d="m37.6 315h52v27h-52z" />
	<path id="Layer" class="s0" d="m318.6 0h52v27h-52z" />
	<path id="Layer" class="s0" d="m728.6 498h52v27h-52z" />
	<path id="Layer" class="s0" d="m41.6 348h52v27h-52z" />
	<path id="Layer" class="s0" d="m355.6 31h52v27h-52z" />
	<path id="Layer" class="s0" d="m165.6 214h52v27h-52z" />
	<path id="Layer" class="s0" d="m202.6 245h52v27h-52z" />
	<path id="Layer" class="s0" d="m301.6 228h52v27h-52z" />
	<path id="Layer" class="s0" d="m206.6 278h52v27h-52z" />
	<path id="Layer" class="s0" d="m798.6 498h52v27h-52z" />
	<path id="Layer" fill-rule="evenodd" class="s4" d="m721.4 396.2q0.3 2.6 0.5 5.2q0.2 2.6 0.3 5.2q0.1 2.6 0 5.1c0.5 65.7-42.2 175.8-42.2 175.6q0.1-0.4 0.2-0.7q0-0.4 0-0.7q0.1-0.3 0.1-0.7q-0.1-0.3-0.1-0.7l-0.2 0.6q0-0.2 0.1-0.3q0-0.1 0-0.2q0-0.1 0-0.2q0.1-0.1 0.1-0.2q-0.2-1.1-0.5-2.1q-0.3-1.1-0.8-2.1q-0.4-1-1-2q-0.5-0.9-1.2-1.8l-0.4 0.6q0.4 1 0.8 2.1q0.3 1.1 0.5 2.3q0.3 1.1 0.4 2.3q0.1 1.1 0.1 2.3v3.4h-332.4v0.3c0 0-15.6 0-36.1-0.3h-2.2c-30.9-0.4-71.8-1.5-87.7-4.1c-18.9-3.1-18.6-27.9-16.8-42.4c-1.2 1.1-1.9 1.7-1.9 1.7l1.3-3.4c-0.8 0.8-1.3 1.2-1.3 1.2c0 0 1.4-3.6 3.7-9.8c12.9-34.6 56.4-150.7 78.3-195.9c25.8-53.4 66-55 66-55l104.1-22q-0.6-4.8-1.3-9.1q-4.5-4.7-8.1-10q-3.7-5.4-6.3-11.3q-2.7-6-4.2-12.3q-1.6-6.3-2.1-12.7c-9.3-9.8-14.8-21.4-14.8-33.9c0-10.5 3.8-20.3 10.5-28.9v-18.7c0-10 1.9-19.8 5.7-28.9c3.8-9.2 9.4-17.5 16.4-24.6c7-7 15.3-12.5 24.5-16.3c9.2-3.8 19-5.8 28.9-5.8h6.2c9.9 0 19.7 2 28.9 5.8c9.1 3.8 17.5 9.3 24.5 16.3c7 7.1 12.6 15.4 16.4 24.6c3.8 9.1 5.7 18.9 5.7 28.9v17.4c7.4 8.9 11.6 19.2 11.6 30.2c0 12.8-5.7 24.7-15.4 34.5q-0.5 6.3-2.1 12.3q-1.5 6.1-4.1 11.8q-2.5 5.8-6 11q-3.4 5.2-7.7 9.8q0.1 0.5 0.3 1q0.4 1.2 1 2.5q0.5 1.2 1 2.4q0.6 1.2 1.2 2.4q0.6 1.1 1.2 2.3c2-1.4 19.7-12.2 77.9 0.2c6.6 1.4 12.7 2.9 18.1 4.6c7.5 2.3 14.5 5.8 20.9 10.2c6.4 4.5 12.1 9.9 16.8 16c4.8 6.2 8.6 13.1 11.2 20.4c2.7 7.3 4.2 15 4.6 22.8q0.3 7.1 0.8 14.2q0.5 7.2 1.3 14.3q0.8 7.1 1.8 14.1q1 7.1 2.3 14.1q0.4 2.6 0.7 5.1zm-267.7-131.4c0 0 0-0.7 0 0.1q0.1 1.2 0.2 2.4q0.1 1.2 0.2 2.3q0.2 1.2 0.3 2.4q0.2 1.2 0.4 2.4q-0.5-5-1.1-9.6zm-144.5 275.3l16.4-3.5v-26.2z" />
	<path id="Layer" class="s5" d="m503.7 57.6c9.9 0 19.8 1.9 28.9 5.7c9.2 3.8 17.5 9.4 24.5 16.4c7.1 7 12.6 15.4 16.4 24.5c3.8 9.2 5.8 19 5.8 28.9v32.3h-151.2v-32.3c0-9.9 2-19.7 5.8-28.9c3.8-9.1 9.4-17.5 16.4-24.5c7-7 15.3-12.6 24.5-16.4c9.2-3.8 19-5.7 28.9-5.7z" />
	<path id="Layer" class="s5" d="m504.2 235.1c-47.6 0-86.1-26.4-86.1-59.2c0-32.7 38.5-59.1 86.1-59.1c47.7 0 86.2 26.4 86.2 59.1c0 32.8-38.5 59.2-86.2 59.2z" />
	<path id="Layer" class="s6" d="m553.7 214.8c-9.5 52.3 36.5 78.2 36.5 78.2l-10.6 67.7l-75.6 27.4c0 0-73-10-55-35.4c18-25.3 0-119.4 0-119.4z" />
	<path id="Layer" class="s6" d="m672 550.4c0 0 4.8 20.6-21.1 24.3q-5.7 0.8-11.5 1.2q-5.8 0.4-11.6 0.3q-5.7 0-11.5-0.5q-5.8-0.6-11.5-1.6l-5.7-51.7h60.3z" />
	<path id="Layer" class="s6" d="m266.7 494.4l40.4 38.7l43.1-9.2v55c0 0-95.1 0-121-4.2c-25.9-4.2-14.5-50.7-14.5-50.7z" />
	<path id="Layer" class="s7" d="m469.6 335.8c2.1 9 48.6 20.1 48.6 20.1c0 0 31.5-14.5 31.2-36.5c-0.2-17 11.4-54.7 11.4-54.7c0 0 15.2-12.6 75 0c6.4 1.4 12.1 2.9 17.4 4.5c7.1 2.2 13.9 5.5 20.1 9.8c6.1 4.3 11.6 9.5 16.1 15.4c4.6 5.9 8.2 12.5 10.8 19.6c2.6 7 4 14.4 4.3 21.9q0.3 6.8 0.8 13.7q0.5 6.8 1.3 13.6q0.7 6.9 1.7 13.6q1 6.8 2.2 13.6c10.7 58.2-39 186.4-39 186.4c4.2-17.4-53.9-48.6-53.9-48.6v48.6h-278.5l7.9-103l-35.9 65c-53.9-49.7-99.9-3.2-99.9-3.2c0 0 53.9-146.4 78.8-197.7c24.8-51.2 63.4-52.8 63.4-52.8l101.2-21.4c-3.7 10.5 12.9 63.1 15 72.1z" />
	<path id="Layer" class="s1" d="m469.6 333.7c2.1 9 48.6 20.1 48.6 20.1c0 0 31.5-14.5 31.2-36.5c-0.2-17 11.4-54.7 11.4-54.7c0 0 15.2-12.6 75 0c6.4 1.4 12.1 2.9 17.4 4.5c7.1 2.2 13.9 5.5 20.1 9.8c6.1 4.3 11.6 9.5 16.1 15.4c4.6 5.9 8.2 12.5 10.8 19.6c2.6 7 4 14.4 4.3 21.9q0.3 6.8 0.8 13.7q0.5 6.8 1.3 13.6q0.7 6.8 1.7 13.6q1 6.8 2.2 13.6c10.7 58.2-39 186.4-39 186.4c4.2-17.4-53.9-48.6-53.9-48.6v48.6h-278.5l7.9-103l-35.9 65c-53.9-49.7-99.9-3.2-99.9-3.2c0 0 53.9-146.4 78.8-197.7c24.8-51.2 63.4-52.8 63.4-52.8l101.2-21.4c-3.7 10.5 12.9 63.1 15 72.1z" />
	<path id="Layer" class="s7" d="m558 257.1c-6.7 7.1-14.7 12.8-23.7 16.7c-8.9 3.9-18.5 5.9-28.3 6c-9.7 0.1-19.4-1.8-28.3-5.6c-9-3.8-17.1-9.4-23.9-16.4c-1.7-11.8-3.2-19.8-3.2-19.8l104.6-18.4q-0.9 4.6-1.2 9.4q-0.2 4.8 0.1 9.5q0.4 4.8 1.3 9.4q1 4.7 2.6 9.2z" />
	<path id="Layer" class="s6" d="m575.9 203.2c-0.1 18.8-7.6 36.9-20.9 50.3c-13.3 13.4-31.3 21-50.2 21.2c-18.8 0.3-37-6.9-50.6-20c-13.6-13.1-21.5-30.9-22.1-49.8q0-0.9 0-1.7c0-6.7 1-13.4 2.8-19.8c1.8-6.5 4.6-12.6 8.1-18.3c3.6-5.7 7.9-10.8 12.8-15.3c5-4.5 10.6-8.3 16.6-11.2q3.2-1.6 6.6-2.9q4.5-1.6 9.1-2.6q4.5-1.1 9.2-1.5q4.7-0.4 9.4-0.3q4.7 0.2 9.3 1c8 1.3 15.6 4 22.6 7.9c7 3.8 13.4 8.8 18.7 14.8c5.4 6 9.7 12.8 12.9 20.2c3.1 7.3 4.9 15.2 5.5 23.2q0.2 2.4 0.2 4.8z" />
	<g id="Layer" style="opacity: .1">
		<path id="Layer" class="s8" d="m470.7 154.3c-4.1 17.5-14.6 42.5-32.1 50.7q-0.8 0.3-1.6 0.6q-0.8 0.3-1.6 0.5q-0.8 0.2-1.6 0.3q-0.9 0.1-1.7 0.1q0-0.8 0-1.7c0-6.7 0.9-13.4 2.8-19.8c1.8-6.4 4.6-12.6 8.1-18.3c3.5-5.6 7.9-10.8 12.8-15.3c5-4.5 10.6-8.2 16.6-11.2q3.2-1.6 6.6-2.8h-0.1c-5.3 3.6-6.7 10.7-8.2 16.9z" />
		<path id="Layer" class="s8" d="m550.2 149.7c4.9 4.2 9.3 9 12.9 14.3c3.7 5.3 6.6 11.1 8.7 17.2c2.1 6.1 3.4 12.4 3.8 18.8c-2.1-1.4-3.4-3.7-4.6-6c-4.4-8.5-7.8-18.4-16-23.5c-4.3-2.7-9.6-3.8-13.6-7q0.4 1.5 0.8 3q0.3 1.5 0.5 3.1q0.1 1.5 0.2 3.1q0 1.5 0 3.1l-20.9-3.3l9.2 7.5q-15.6-5-31-10.9c-9.3-3.6-23.3-9-27.8-18.9c4.7-2.2 9.6-4 14.6-5.2c5.1-1.3 10.3-1.9 15.5-2c5.2-0.1 10.4 0.3 15.5 1.3c5.1 1 10.1 2.6 14.8 4.7q-0.3-0.9-0.8-1.8q-0.4-1-0.9-1.8q-0.5-0.9-1-1.8q-0.6-0.8-1.2-1.6q-1.2-1.5-2.6-2.8q-1.5-1.3-3.1-2.3q-1.7-1.1-3.4-1.8q-1.8-0.7-3.7-1.2q2.3 0.4 4.6 1q2.3 0.5 4.5 1.2q2.2 0.7 4.4 1.5q2.2 0.9 4.3 1.8c5.9 2.7 11.4 6.2 16.3 10.3z" />
	</g>
	<path id="Layer" class="s9" d="m470.7 152.7c-4.1 17.5-14.6 42.5-32.1 50.7q-0.8 0.3-1.6 0.6q-0.8 0.3-1.6 0.5q-0.8 0.2-1.6 0.3q-0.9 0.1-1.7 0.1q0-0.9 0-1.7c0-6.7 0.9-13.4 2.8-19.8c1.8-6.5 4.6-12.6 8.1-18.3c3.5-5.7 7.9-10.8 12.8-15.3c5-4.5 10.6-8.3 16.6-11.2q3.2-1.6 6.6-2.9l-0.1 0.1c-5.3 3.6-6.7 10.7-8.2 16.9z" />
	<path id="Layer" class="s9" d="m550.2 148.1c4.9 4.2 9.3 9 12.9 14.3c3.7 5.3 6.6 11.1 8.7 17.1c2.1 6.1 3.4 12.5 3.8 18.9c-2.1-1.4-3.4-3.7-4.6-6c-4.4-8.5-7.8-18.4-16-23.5c-4.3-2.7-9.6-3.8-13.6-7q0.4 1.5 0.8 3q0.3 1.5 0.5 3q0.1 1.6 0.2 3.1q0 1.6 0 3.2l-20.9-3.4l9.2 7.5q-15.6-4.9-31-10.8c-9.3-3.6-23.3-9-27.8-18.9c4.7-2.3 9.6-4 14.6-5.2c5.1-1.3 10.3-1.9 15.5-2.1c5.2-0.1 10.4 0.4 15.5 1.4c5.1 1 10.1 2.6 14.8 4.7q-0.3-1-0.8-1.9q-0.4-0.9-0.9-1.8q-0.5-0.8-1-1.7q-0.6-0.8-1.2-1.6q-1.2-1.5-2.6-2.8q-1.5-1.3-3.1-2.3q-1.7-1.1-3.4-1.8q-1.8-0.8-3.7-1.2q2.3 0.4 4.6 0.9q2.3 0.6 4.5 1.3q2.2 0.7 4.4 1.5q2.2 0.8 4.3 1.8c5.9 2.7 11.4 6.2 16.3 10.3z" />
	<path id="Layer" class="s7" d="m450.9 146.4c0 0 28-9 56.5-21.7c28.6-12.7 68.7 46 68.7 46l7.4 20.6c-85.6-92-159.6 0-159.6 0z" />
	<path id="Layer" class="s5" d="m450.9 144.8c0-0.1 28-9.1 56.5-21.7c28.6-12.7 68.7 46 68.7 46l7.4 20.6c-85.6-92-159.6 0-159.6 0z" />
	<path id="Layer" class="s7" d="m363.1 387.9c0 0-15.8 42.3 6.4 80.3c22.2 38.1-19.6 53.9-19.6 53.9" />
	<path id="Layer" class="s7" d="m620 349.8c0 0 27.5 34.9 9.5 66.1c-18 31.2-16.9 106.2-16.9 106.2" />
	<path id="Layer" class="s10" d="m338.8 553.3h305.5c3.3 0 6.6 0.7 9.7 1.9c3.1 1.3 5.9 3.2 8.2 5.5c2.4 2.4 4.3 5.2 5.5 8.3c1.3 3 2 6.3 2 9.7h-356.2c0-3.4 0.6-6.7 1.9-9.7c1.3-3.1 3.1-5.9 5.5-8.3c2.3-2.3 5.1-4.2 8.2-5.5c3.1-1.2 6.4-1.9 9.7-1.9z" />
	<path id="Layer" class="s10" d="m369.9 378.9h243.3c5.1 0 10.2 1 14.9 3c4.8 1.9 9.1 4.8 12.7 8.4c3.6 3.6 6.5 7.9 8.5 12.7c1.9 4.7 2.9 9.8 2.9 14.9v141.2h-321.3v-141.2c0-5.1 1-10.2 3-14.9c1.9-4.8 4.8-9.1 8.4-12.7c3.6-3.6 7.9-6.5 12.7-8.4c4.7-2 9.8-3 14.9-3z" />
	<path id="Layer" class="s11" d="m491.3 496c-10.5 0-19-8.5-19-19.1c0-10.5 8.5-19 19-19c10.5 0 19 8.5 19 19c0 10.6-8.5 19.1-19 19.1z" />
	<path id="Layer" class="s12" d="m428.1 148.2c0 0 72.8-72.7 151.2-1.3" />
	<path id="Layer" class="s13" d="m590.4 143.6h7.3v41.4h-7.3z" />
	<path id="Layer" class="s14" d="m580.6 170.3c3.3 0.1 6.6 0.7 9.6 2c3.1 1.2 5.9 3.1 8.2 5.4c2.3 2.4 4.2 5.1 5.5 8.2c1.2 3 1.9 6.3 1.9 9.6v1.6c0 3.3-0.7 6.6-1.9 9.7c-1.3 3-3.2 5.8-5.5 8.1c-2.3 2.4-5.1 4.2-8.2 5.5c-3 1.2-6.3 1.9-9.6 1.9z" />
	<path id="Layer" class="s13" d="m575.8 173.6c0-3.1 2.5-5.7 5.6-5.7c3.2 0 5.7 2.6 5.7 5.7v45.4c0 3.2-2.5 5.7-5.7 5.7c-3.1 0-5.6-2.5-5.6-5.7z" />
	<path id="Layer" class="s13" d="m416.3 185.8h-7.3v-41.4h7.3z" />
	<path id="Layer" class="s14" d="m426.1 223.1c-3.3 0-6.6-0.7-9.7-1.9c-3-1.3-5.8-3.1-8.1-5.5c-2.4-2.3-4.2-5.1-5.5-8.1c-1.2-3.1-1.9-6.4-1.9-9.7v-1.6c0-3.3 0.7-6.6 1.9-9.6c1.3-3.1 3.1-5.8 5.5-8.2c2.3-2.3 5.1-4.2 8.1-5.4c3.1-1.3 6.4-1.9 9.7-1.9z" />
	<path id="Layer" class="s13" d="m430.9 219.8c0 3.2-2.5 5.7-5.6 5.7h-0.1c-3.1 0-5.6-2.5-5.6-5.7v-45.4c0-3.1 2.5-5.7 5.6-5.7h0.1c3.1 0 5.6 2.6 5.6 5.7z" />
	<path id="Layer" class="s14" d="m595.8 107.9q1.9 5.5 3.2 11.1q1.3 5.6 2 11.3q0.6 5.7 0.7 11.4l-5.7-0.1l-5.7-0.2q-0.1-5.1-0.7-10.2q-0.6-5-1.8-10q-1.2-5-2.8-9.8q-1.7-4.9-3.9-9.5c-12.5-25.7-35.6-39.4-68.5-40.7l-14.5 0.9c-33 1.2-56 14.9-68.5 40.6q-2.2 4.6-3.9 9.5q-1.7 4.8-2.8 9.8q-1.2 5-1.8 10q-0.7 5.1-0.8 10.2l-5.6 0.2l-5.7 0.1q0.1-5.7 0.7-11.4q0.7-5.8 2-11.4q1.3-5.6 3.2-11q1.9-5.4 4.3-10.6c9.9-20.5 31.3-45.3 77.4-47.4v-0.1l16.5-0.7h0.5c46.5 2 68 26.9 77.9 47.4q2.5 5.2 4.3 10.6z" />
	<path id="Layer" class="s15" d="m74.3 579h774.7v208h-774.7z" />
	<path id="Layer" class="s7" d="m74.3 593h774.7v27h-774.7z" />
	<path id="Layer" class="s15" d="m22.3 576h878.6v27h-878.6z" />
</svg>